<?xml version="1.0" standalone="no"?>
<!DOCTYPE svg PUBLIC "-//W3C//DTD SVG 20010904//EN"
 "http://www.w3.org/TR/2001/REC-SVG-20010904/DTD/svg10.dtd">
<svg version="1.0" xmlns="http://www.w3.org/2000/svg"
 width="512.000000pt" height="512.000000pt" viewBox="0 0 512.000000 512.000000"
 preserveAspectRatio="xMidYMid meet">

<g transform="translate(0.000000,512.000000) scale(0.100000,-0.100000)"
fill="#000000" stroke="none">
<path d="M2320 4506 c-168 -36 -304 -173 -345 -347 -17 -76 -21 -519 -4 -634
5 -38 14 -115 19 -170 10 -120 21 -159 66 -246 40 -75 114 -155 191 -207 l53
-35 0 -69 0 -69 -163 -79 c-195 -95 -261 -136 -350 -220 -117 -109 -177 -219
-198 -366 l-11 -74 -103 0 c-122 0 -135 -4 -135 -39 0 -14 49 -266 109 -560
l109 -534 -33 -31 c-37 -35 -50 -70 -43 -116 l5 -30 -732 0 c-555 0 -734 -3
-743 -12 -16 -16 -15 -33 4 -52 14 -14 259 -16 2544 -16 2285 0 2530 2 2544
16 19 19 20 36 4 52 -9 9 -188 12 -743 12 l-732 0 5 30 c7 46 -6 81 -43 116
l-33 31 109 534 c60 294 109 546 109 560 0 35 -13 39 -135 39 l-103 0 -11 74
c-21 147 -81 257 -198 366 -89 83 -167 132 -355 223 l-158 76 0 69 0 70 38 23
c115 70 215 198 251 324 7 22 16 85 22 140 5 55 13 132 19 170 5 39 9 134 10
213 l0 142 94 0 c80 0 98 3 126 23 73 49 75 56 78 280 3 196 2 203 -21 246
-16 31 -37 52 -67 68 l-43 23 -476 -1 c-329 0 -493 -4 -531 -13z m1013 -78
c44 -23 46 -34 47 -231 0 -186 0 -188 -25 -212 l-24 -25 -491 0 c-329 0 -506
-4 -535 -11 -59 -15 -129 -77 -149 -132 -8 -23 -18 -76 -21 -117 -3 -41 -11
-91 -17 -111 -13 -44 -53 -97 -65 -86 -4 5 -8 151 -8 325 0 308 1 319 23 374
42 103 145 196 251 224 64 17 982 19 1014 2z m-504 -573 c44 -26 71 -78 71
-136 0 -128 48 -246 116 -288 49 -29 51 -39 33 -137 -16 -92 -70 -194 -137
-261 -96 -96 -212 -143 -354 -143 -241 0 -443 168 -487 405 -18 97 -16 107 33
136 68 42 116 161 116 292 0 48 25 104 57 124 42 28 85 32 303 30 195 -2 218
-4 249 -22z m249 -165 c-2 -98 -7 -182 -11 -186 -3 -4 -13 -2 -21 5 -28 24
-47 83 -60 189 -8 60 -21 123 -30 140 l-17 32 72 0 71 0 -4 -180z m-518 -875
c63 0 130 4 148 8 l32 9 0 -61 c0 -56 -5 -70 -87 -225 -49 -91 -90 -166 -93
-166 -3 0 -44 75 -92 166 -83 155 -88 169 -88 225 l0 61 33 -9 c17 -4 84 -8
147 -8z m-140 -353 l91 -172 -32 -45 c-18 -25 -36 -45 -39 -45 -13 0 -265 383
-255 386 6 2 37 17 70 33 33 16 63 26 67 22 3 -3 47 -84 98 -179z m519 121 c6
-5 -249 -383 -259 -383 -3 0 -21 20 -39 45 l-32 45 57 107 c31 60 74 140 96
180 l39 72 67 -31 c37 -17 69 -33 71 -35z m-684 -271 c178 -270 177 -269 251
-173 26 34 50 61 54 61 4 0 28 -27 54 -61 74 -95 72 -97 253 171 86 128 158
224 165 222 7 -2 48 -24 92 -50 95 -57 190 -142 240 -215 45 -65 86 -173 86
-227 l0 -39 -892 -3 c-491 -2 -895 -2 -897 0 -3 1 1 35 7 74 22 127 107 257
231 352 60 46 179 116 196 115 6 0 78 -103 160 -227z m1348 -864 c-52 -255
-100 -490 -107 -523 l-12 -60 -924 0 -924 0 -9 40 c-4 22 -52 257 -106 523
l-99 482 1138 0 1137 0 -94 -462z m-46 -698 c10 -20 10 -29 -1 -45 -13 -20
-24 -20 -994 -23 l-981 -2 -17 25 c-15 23 -15 27 0 50 l17 25 981 -2 982 -3
13 -25z"/>
<path d="M2471 1566 c-47 -17 -111 -73 -127 -112 -31 -74 -11 -149 55 -206
144 -123 391 -37 391 137 0 109 -105 196 -234 194 -28 0 -66 -6 -85 -13z m169
-81 c41 -21 70 -63 70 -100 0 -65 -65 -115 -150 -115 -148 0 -204 139 -86 211
38 23 125 25 166 4z"/>
<path d="M4081 3953 c-241 -2 -359 -7 -368 -14 -20 -17 -19 -1351 1 -1368 9
-8 153 -10 517 -9 l504 3 3 553 2 554 -142 144 c-79 79 -147 143 -153 142 -5
-2 -169 -4 -364 -5z m329 -196 c6 -149 4 -147 152 -147 l108 0 -2 -487 -3
-488 -442 -3 -443 -2 0 625 0 625 313 -2 312 -3 5 -118z m139 -8 l54 -59 -61
0 -62 0 0 60 c0 33 3 59 8 59 4 -1 31 -28 61 -60z"/>
<path d="M4142 3688 c-18 -18 -14 -46 7 -58 11 -5 47 -10 81 -10 34 0 70 5 81
10 23 13 25 55 3 64 -29 11 -160 6 -172 -6z"/>
<path d="M3883 3680 c-31 -13 -43 -41 -43 -100 0 -61 12 -88 46 -100 22 -9 24
-15 24 -75 0 -38 -4 -65 -10 -65 -6 0 -22 -11 -35 -25 -21 -20 -25 -34 -25
-80 0 -65 12 -92 46 -105 23 -9 24 -14 24 -95 0 -52 -4 -85 -10 -85 -6 0 -22
-11 -35 -25 -21 -20 -25 -34 -25 -85 0 -84 17 -100 108 -100 90 0 102 12 102
103 0 54 -4 71 -20 87 -11 11 -24 20 -30 20 -6 0 -10 37 -10 90 0 69 3 90 13
90 31 0 47 35 47 101 0 70 -4 80 -37 98 -21 10 -23 19 -23 81 0 52 3 70 13 70
31 0 47 35 47 103 0 59 -3 68 -26 86 -28 22 -99 28 -141 11z m97 -100 c0 -27
-3 -30 -30 -30 -27 0 -30 3 -30 30 0 27 3 30 30 30 27 0 30 -3 30 -30z m-2
-347 c-2 -22 -9 -29 -30 -31 -25 -3 -28 0 -28 27 0 28 3 31 31 31 27 0 30 -3
27 -27z m0 -390 c-2 -22 -9 -29 -30 -31 -25 -3 -28 0 -28 27 0 28 3 31 31 31
27 0 30 -3 27 -27z"/>
<path d="M4148 3569 c-10 -5 -18 -18 -18 -27 0 -35 21 -42 130 -42 69 0 110 4
118 12 18 18 14 46 -7 58 -25 13 -201 13 -223 -1z"/>
<path d="M4140 3335 c-6 -8 -9 -23 -5 -35 6 -19 14 -20 200 -20 186 0 194 1
200 20 14 45 -5 50 -200 50 -147 0 -185 -3 -195 -15z"/>
<path d="M4142 3218 c-7 -7 -12 -19 -12 -28 0 -33 22 -40 123 -40 104 0 137 9
137 38 0 35 -21 42 -130 42 -69 0 -110 -4 -118 -12z"/>
<path d="M4140 2945 c-6 -8 -9 -23 -5 -35 6 -19 14 -20 200 -20 186 0 194 1
200 20 14 45 -5 50 -200 50 -147 0 -185 -3 -195 -15z"/>
<path d="M4142 2828 c-18 -18 -14 -46 7 -58 11 -5 61 -10 111 -10 97 0 130 10
130 38 0 35 -21 42 -130 42 -69 0 -110 -4 -118 -12z"/>
<path d="M727 3944 c-4 -4 -7 -88 -7 -186 l0 -178 -124 0 c-100 0 -128 -3
-140 -16 -9 -8 -16 -20 -16 -26 0 -6 44 -55 97 -109 53 -54 95 -101 92 -103
-2 -2 -23 -13 -45 -24 -62 -31 -105 -71 -125 -117 -16 -34 -19 -67 -19 -215 0
-96 4 -191 10 -209 23 -80 135 -155 279 -187 111 -25 321 -15 414 19 84 31
137 65 174 113 l28 37 3 196 c3 161 0 202 -13 237 -19 49 -67 95 -131 127 -24
11 -44 24 -44 27 0 3 43 48 95 100 52 52 95 100 95 107 0 6 -7 19 -16 27 -12
13 -40 16 -139 16 l-125 0 -2 183 -3 182 -166 3 c-91 1 -168 -1 -172 -4z m269
-245 c1 -98 5 -182 8 -188 5 -7 45 -11 109 -11 l102 0 -155 -155 c-85 -85
-159 -155 -165 -155 -11 0 -305 291 -305 302 0 5 43 8 95 8 83 0 96 2 105 19
6 12 10 92 10 191 l0 171 98 -3 97 -3 1 -176z m-201 -529 c49 -49 96 -90 103
-90 7 0 55 41 107 91 l95 92 46 -18 c25 -9 64 -35 86 -56 36 -34 40 -42 34
-71 -12 -61 -78 -107 -201 -138 -198 -51 -463 1 -526 103 -25 42 -24 59 6 95
26 31 116 82 145 82 8 0 56 -40 105 -90z m-72 -275 c52 -11 109 -15 190 -13
l117 3 0 -117 c0 -75 -4 -119 -11 -124 -19 -11 -211 -8 -274 5 -83 18 -158 55
-194 97 -30 34 -31 38 -31 133 l0 98 65 -33 c35 -18 98 -40 138 -49z"/>
<path d="M872 2432 c-10 -7 -12 -122 -10 -543 l3 -534 196 -3 c170 -2 198 0
210 14 9 11 10 20 2 32 -9 14 -35 18 -174 22 l-164 5 -5 505 c-5 496 -5 505
-25 508 -11 1 -26 -2 -33 -6z"/>
<path d="M4190 2421 c-6 -13 -10 -191 -10 -510 l0 -491 -164 0 c-152 0 -165
-1 -171 -19 -3 -10 -3 -26 1 -35 5 -14 30 -16 204 -16 171 0 199 2 204 16 3 9
6 248 6 533 0 389 -3 520 -12 529 -18 18 -46 14 -58 -7z"/>
</g>
</svg>
